<svg width="20" height="21" viewBox="0 0 20 21" fill="none" xmlns="http://www.w3.org/2000/svg">
<path id="Vector" d="M14.8619 14.6008L16.0234 14.0403C16.4711 14.9637 17.072 15.7823 17.802 16.496C19.1732 14.7823 20 12.6129 20 10.25C20 7.89113 19.1773 5.72581 17.8141 4.01613C17.0962 4.71371 16.4993 5.5121 16.0557 6.41532L14.8982 5.84677C15.4144 4.79839 16.1081 3.87097 16.947 3.06452C15.1482 1.32661 12.7042 0.25 10.002 0.25C7.30389 0.25 4.85985 1.32258 3.0611 3.06048C3.89595 3.8629 4.58963 4.79032 5.10587 5.83468L3.94838 6.40323C3.50474 5.50403 2.91188 4.70565 2.19399 4.00806C0.822747 5.72177 0 7.8871 0 10.25C0 12.6129 0.822747 14.7782 2.19399 16.4879C2.92801 15.7742 3.53297 14.9556 3.98064 14.0282L5.14217 14.5887C4.6219 15.6653 3.92015 16.6169 3.06513 17.4395C4.85985 19.1774 7.30389 20.25 10.002 20.25C12.6961 20.25 15.1361 19.1815 16.9349 17.4476C16.0839 16.625 15.3821 15.6774 14.8619 14.6008ZM5.65437 13.3105L4.42428 12.9153C5.02521 11.0444 4.93648 9.13306 4.40008 7.5121L5.62613 7.10887C6.2311 8.94758 6.35209 11.1371 5.65437 13.3105ZM14.3779 7.125L15.604 7.52823C15.0716 9.14516 14.9788 11.0565 15.5798 12.9315L14.3497 13.3266C13.6519 11.1492 13.7729 8.95968 14.3779 7.125Z" fill="#FFFDFD"/>
</svg>
