<svg id="Layer_2" data-name="Layer 2" xmlns="http://www.w3.org/2000/svg" width="207.011" height="40" viewBox="0 0 207.011 40">
  <g id="Layer_1" data-name="Layer 1">
    <path id="Path_1" data-name="Path 1" d="M14.284,63.726c-.112,0-.221-.016-.333-.016a13.706,13.706,0,0,0-3.374.434,30.068,30.068,0,0,1,1.759,13.089c-.536,5-1.968,8.632-5.208,12.114A39.994,39.994,0,0,1,0,95.166a29.657,29.657,0,0,0,8.138-5.3A22.652,22.652,0,0,0,15.03,77.437,28.314,28.314,0,0,0,14.284,63.726Z" transform="translate(0 -55.671)" fill="#fff"/>
    <path id="Path_2" data-name="Path 2" d="M7.5,98.817A22.752,22.752,0,0,0,11.3,87.669c.233-4.2-.574-9.346-2.019-12.309A13.71,13.71,0,0,0,7.5,98.817Z" transform="translate(-1.486 -65.851)" fill="#fff"/>
    <path id="Path_3" data-name="Path 3" d="M171.184,153.41c-.474,5.568-3.155,10.145-6.7,14.332A13.628,13.628,0,0,0,171.184,153.41Z" transform="translate(-143.725 -134.052)" fill="#fff"/>
    <path id="Path_4" data-name="Path 4" d="M105.809,15.577A26.5,26.5,0,0,0,100.012,0c2.661,5.213,3.71,9.233,3.836,12.691a23.941,23.941,0,0,1-1.634,9.085c-1.866,5.339-6.688,10.406-11.1,13.5a13.249,13.249,0,0,0,5.633-.154,28.347,28.347,0,0,0,8.288-13.078,21.874,21.874,0,0,0,.779-6.469Z" transform="translate(-79.613)" fill="#fff"/>
    <path id="Path_5" data-name="Path 5" d="M86.7,67.655a13.679,13.679,0,0,0-5.2-2.1c1.15,4.408,1.674,9.759.617,13.5A25.319,25.319,0,0,1,74.491,92l-.011.011L74.5,92c4.262-2.42,13.257-9.918,12.2-24.347Z" transform="translate(-65.082 -57.279)" fill="#fff"/>
    <path id="Path_6" data-name="Path 6" d="M261.53,90.823V68.431a5.049,5.049,0,0,1,1.4-3.706,4.951,4.951,0,0,1,3.69-1.416,8,8,0,0,1,1.552.154,4.122,4.122,0,0,1,3.417,3.42L275,82.576l3.774-15.693a4.23,4.23,0,0,1,3.373-3.42,7.774,7.774,0,0,1,1.589-.154,4.934,4.934,0,0,1,3.682,1.416,5.069,5.069,0,0,1,1.4,3.706V90.823h-5.552V71.38l-4.23,16.377a7.782,7.782,0,0,1-.618,1.669,3.356,3.356,0,0,1-3.263,2.019q-2.948,0-3.879-3.687L267.119,71.38V90.823Z" transform="translate(-228.529 -55.32)" fill="#fff"/>
    <path id="Path_7" data-name="Path 7" d="M488.22,66.044h6.642l5.214,10.227,5.552-10.227h6.688l-9.155,16.609V93.21h-5.82V82.653Zm24.1,5.86v-5.86h17.465V71.9h-5.862V93.21H518.1V71.9Zm19.676,15.629V71.9a8.225,8.225,0,0,1,.117-1.195q.738-4.669,5.552-4.669h12.068V71.9H539.176a.864.864,0,0,0-.351.117,1.459,1.459,0,0,0-1.009,1.59v3.028h11.915V82.5H537.815v3.028a1.582,1.582,0,0,0,1.514,1.823h10.4v5.86H538.475q-6.481,0-6.481-5.676Z" transform="translate(-426.615 -57.707)" fill="#fff"/>
    <path id="Path_8" data-name="Path 8" d="M986.46,91.619l7.529-23.789q1.16-3.609,4.579-3.61t4.58,3.643l7.488,23.756h-6.1l-1.841-5.86h-8.273l-1.812,5.86Zm14.481-11.409-2.761-8.772-2.019,8.772Z" transform="translate(-861.986 -56.117)" fill="#fff"/>
    <path id="Path_9" data-name="Path 9" d="M1191,90.823V68.431a5.046,5.046,0,0,1,1.4-3.706,4.949,4.949,0,0,1,3.686-1.416,8.015,8.015,0,0,1,1.554.154,4.124,4.124,0,0,1,3.417,3.42l3.412,15.693,3.774-15.692a4.23,4.23,0,0,1,3.373-3.42,7.774,7.774,0,0,1,1.594-.155,4.936,4.936,0,0,1,3.682,1.416,5.062,5.062,0,0,1,1.4,3.706V90.823h-5.552V71.38L1208.5,87.757a7.727,7.727,0,0,1-.62,1.669,3.352,3.352,0,0,1-3.262,2.019q-2.948,0-3.879-3.687l-4.153-16.377V90.823Z" transform="translate(-1040.716 -55.32)" fill="#fff"/>
    <path id="Path_10" data-name="Path 10" d="M1456.5,69.216a8.316,8.316,0,0,1-2.611.529c-.353,0-.529-.193-.529-.58v-.683a.949.949,0,0,1,.153-.589,1.98,1.98,0,0,1,.768-.434,12.036,12.036,0,0,0,2.236-1.388,14.254,14.254,0,0,0,2.765-2.776,10.549,10.549,0,0,1,1.229-1.459,1.37,1.37,0,0,1,.649-.111h1.416V86.419q0,.379.58.665a1.17,1.17,0,0,1,.606.5,4.934,4.934,0,0,1,.111,1.388q0,.443-.6.443h-7.817c-.329,0-.531-.05-.606-.154a1.542,1.542,0,0,1-.111-.751,3.4,3.4,0,0,1,.095-1.057c.063-.136.3-.267.708-.392q.955-.289.955-.837Zm13.107,0a8.322,8.322,0,0,1-2.609.529q-.53,0-.53-.58v-.683a.949.949,0,0,1,.153-.589,1.983,1.983,0,0,1,.77-.434,12.064,12.064,0,0,0,2.235-1.388,14.22,14.22,0,0,0,2.765-2.776,10.688,10.688,0,0,1,1.229-1.459,1.371,1.371,0,0,1,.649-.111h1.416V86.419c0,.252.194.472.58.665a1.166,1.166,0,0,1,.606.5,4.991,4.991,0,0,1,.111,1.388q0,.443-.6.443h-7.817c-.329,0-.531-.05-.6-.154a1.552,1.552,0,0,1-.112-.751,3.4,3.4,0,0,1,.095-1.057q.095-.2.708-.392.955-.289.955-.837Z" transform="translate(-1269.971 -53.933)" fill="#fff"/>
    <path id="Path_11" data-name="Path 11" d="M261.53,309.08l173.943.5-173.943.5Z" transform="translate(-228.529 -270.079)" fill="#fff"/>
  </g>
</svg>
