<svg xmlns="http://www.w3.org/2000/svg" xmlns:xlink="http://www.w3.org/1999/xlink" width="40" height="40" viewBox="0 0 40 40">
  <defs>
    <clipPath id="clip-path">
      <rect id="Rectangle_3858" data-name="Rectangle 3858" width="20" height="20" transform="translate(298 466)" fill="#fff"/>
    </clipPath>
  </defs>
  <g id="tw_icon" transform="translate(-318 -324)">
    <rect id="Rectangle_3856" data-name="Rectangle 3856" width="40" height="40" transform="translate(318 324)" fill="#55aded"/>
    <g id="Mask_Group_8198" data-name="Mask Group 8198" transform="translate(30 -132)" clip-path="url(#clip-path)">
      <path id="Path_49074" data-name="Path 49074" d="M0,13.5a7.811,7.811,0,0,0,5.574-1.581A3.956,3.956,0,0,1,2,9.238H3.654l.01-.063a3.964,3.964,0,0,1-3-3.81,3.991,3.991,0,0,0,1.718.459A4.086,4.086,0,0,1,.714,2.891,3.765,3.765,0,0,1,1.239.728,10.862,10.862,0,0,0,9.051,4.707,11.551,11.551,0,0,1,9.057,3.5,3.649,3.649,0,0,1,11.511.274a3.687,3.687,0,0,1,3.983.787.383.383,0,0,0,.439.109c.643-.248,1.288-.493,1.931-.74.06-.023.116-.055.229-.11a3.8,3.8,0,0,1-1.58,2.049l.035.076,2.013-.557c-.045.069-.092.148-.145.222A7.36,7.36,0,0,1,16.859,3.7a.374.374,0,0,0-.169.357A10.849,10.849,0,0,1,.2,13.664c-.059-.034-.117-.071-.174-.109C.017,13.548.015,13.53,0,13.5" transform="translate(299 468)" fill="#fff"/>
    </g>
  </g>
</svg>
