<svg xmlns="http://www.w3.org/2000/svg" xmlns:xlink="http://www.w3.org/1999/xlink" width="40" height="40" viewBox="0 0 40 40">
  <defs>
    <clipPath id="clip-path">
      <rect id="Rectangle_3861" data-name="Rectangle 3861" width="20" height="20" transform="translate(250 495)" fill="#fff"/>
    </clipPath>
  </defs>
  <g id="wt_icon" transform="translate(-318 -364)">
    <rect id="Rectangle_3860" data-name="Rectangle 3860" width="40" height="40" transform="translate(318 364)" fill="#55eb4c"/>
    <g id="Mask_Group_8199" data-name="Mask Group 8199" transform="translate(78 -121)" clip-path="url(#clip-path)">
      <g id="_2559769_media_network_social_whatsapp_icon" data-name="2559769_media_network_social_whatsapp_icon" transform="translate(250.5 495.5)">
        <path id="Path_49097" data-name="Path 49097" d="M9.5.5a9.052,9.052,0,0,0-9,9,8.886,8.886,0,0,0,1.565,5.087L1.048,17.639a.344.344,0,0,0,.078.391.517.517,0,0,0,.47.078l3.13-1.017A8.719,8.719,0,0,0,9.5,18.5a9.052,9.052,0,0,0,9-9A9.052,9.052,0,0,0,9.5.5Zm5.4,12.678a2.764,2.764,0,0,1-1.957,1.487c-.157,0-.313.078-.548.078a8.322,8.322,0,0,1-2.661-.7A10.531,10.531,0,0,1,5.352,10.2l-.078-.078A5.167,5.167,0,0,1,4.1,7.23a3.472,3.472,0,0,1,.939-2.348,1.593,1.593,0,0,1,1.174-.47h.313c.391,0,.626.157.861.626l.157.313c.235.548.548,1.409.626,1.565a.708.708,0,0,1,0,.783,1.637,1.637,0,0,1-.313.47c-.078.078-.157.157-.157.235l-.235.235v.078A7.163,7.163,0,0,0,8.8,10.361a6.352,6.352,0,0,0,1.8,1.174h.078c.078,0,.157.078.157,0,.157-.157.313-.47.548-.7l.078-.078a.928.928,0,0,1,.7-.391.471.471,0,0,1,.313.078A10.733,10.733,0,0,1,14.2,11.3l.157.078c.235.078.391.157.47.391C15.135,11.926,15.057,12.63,14.9,13.178Z" fill="#fff"/>
      </g>
    </g>
  </g>
</svg>
